<svg width="21" height="14" viewBox="0 0 21 14" fill="none" xmlns="http://www.w3.org/2000/svg">
<path fill-rule="evenodd" clip-rule="evenodd" d="M13.2468 7.11473L20.1857 1.22504V12.9305L13.2468 7.11473ZM0.409971 0.408374C0.541741 0.279311 0.698817 0.176754 0.872078 0.106656C1.04534 0.0365593 1.23133 0.000319864 1.41925 4.28065e-05H18.7664C18.9498 -0.00137148 19.1316 0.0322723 19.3014 0.0990258C19.4712 0.165779 19.6255 0.264316 19.7555 0.38893C19.7573 0.391263 10.0928 8.41536 10.0928 8.41536C10.0928 8.41536 0.409567 0.409346 0.409971 0.408374ZM0 12.929V1.22504L6.93882 7.11667L0 12.929ZM10.0646 9.79241L12.616 7.65022C12.616 7.65022 19.7143 13.6097 19.7127 13.6111C19.5831 13.7355 19.4292 13.834 19.2598 13.9007C19.0904 13.9675 18.909 14.0012 18.726 14H1.4031C1.21536 13.9997 1.02955 13.9635 0.856484 13.8934C0.683418 13.8233 0.526558 13.7207 0.395033 13.5916L7.56962 7.65022L10.0646 9.79241Z" fill="#E7E7E7"/>
</svg>
