<svg width="137" height="129" viewBox="0 0 137 129" fill="none" xmlns="http://www.w3.org/2000/svg">
<path d="M40.4824 47.0175V126.235H61.002H133.505V46.3812L86.9935 3.75024L40.4824 47.0175Z" stroke="white" stroke-width="5" stroke-miterlimit="10"/>
<path d="M108.539 53.0268L61.002 8.16882V53.0268" stroke="white" stroke-width="5" stroke-miterlimit="10"/>
<path d="M61.002 98.8391V126.235" stroke="white" stroke-width="5" stroke-miterlimit="10"/>
<path d="M77.4175 104.248V126.235" stroke="white" stroke-width="5" stroke-miterlimit="10"/>
<path d="M96.9111 104.248V126.235" stroke="white" stroke-width="5" stroke-miterlimit="10"/>
<path d="M58.5639 57.3305C58.8467 57.3226 59.1278 57.3729 59.3872 57.4778C59.5931 57.563 59.7768 57.6886 59.9256 57.846C60.064 57.9885 60.1715 58.1546 60.2422 58.335C60.3025 58.4931 60.3345 58.6593 60.3372 58.827V64.8039C60.3257 64.9399 60.3024 65.0749 60.2676 65.2075C60.2071 65.4456 60.0791 65.6643 59.8971 65.8408C59.7549 65.9627 59.5923 66.0622 59.4157 66.1354C59.1473 66.2434 58.8562 66.2937 58.5639 66.2827H58.0541V70.445H56.8286V57.3364H58.5639V57.3305ZM58.9756 65.0337C59.0156 64.9963 59.0478 64.9524 59.0706 64.9041C59.0784 64.8818 59.0879 64.8602 59.0991 64.8392V58.8653C59.0968 58.7828 59.0681 58.7028 59.0167 58.6355C58.9764 58.5867 58.9244 58.5474 58.8648 58.5206C58.8116 58.4948 58.7535 58.4788 58.6937 58.4735H58.5639H58.0541V65.1427H58.5639C58.6393 65.1425 58.7144 65.1366 58.7887 65.125C58.8597 65.1134 58.9251 65.0815 58.9756 65.0337Z" fill="#EB5D1C"/>
<path d="M67.2084 57.3306V69.2992H69.6182V70.4392H65.9766V57.3306H67.2084Z" fill="#EB5D1C"/>
<path d="M78.4532 68.9133C78.463 69.1092 78.4289 69.3049 78.3531 69.4879C78.2774 69.671 78.1616 69.8374 78.0131 69.9767C77.8437 70.1326 77.6415 70.2541 77.4191 70.3337C77.1968 70.4133 76.9591 70.4492 76.7211 70.4392C76.47 70.4512 76.2192 70.41 75.9877 70.3187C75.7562 70.2273 75.55 70.0882 75.3848 69.9119C75.1245 69.6455 74.9781 69.2997 74.9731 68.9398V57.3306H76.1954V68.9015C76.2144 69.1666 76.3886 69.2992 76.7211 69.2992C76.8692 69.3123 77.0169 69.2711 77.1328 69.1843C77.1678 69.1525 77.1957 69.1144 77.2147 69.0724C77.2338 69.0305 77.2436 68.9853 77.2436 68.9398L77.2278 57.3306H78.4532V68.9133Z" fill="#EB5D1C"/>
<path d="M87.5856 68.9279C87.5899 69.122 87.552 69.315 87.4741 69.4951C87.3963 69.6753 87.2802 69.8391 87.1328 69.9765C86.9631 70.1328 86.7603 70.2546 86.5374 70.3342C86.3145 70.4138 86.0762 70.4495 85.8377 70.439C85.5891 70.4495 85.3411 70.4075 85.1125 70.3161C84.8838 70.2248 84.6803 70.0866 84.5172 69.9117C84.2569 69.6454 84.1104 69.2996 84.1055 68.9396V66.097H85.331V68.9013C85.331 69.1665 85.5178 69.299 85.8377 69.299C85.9849 69.3141 86.133 69.2774 86.2525 69.1959C86.2888 69.1625 86.3174 69.1225 86.3365 69.0785C86.3555 69.0344 86.3647 68.9871 86.3633 68.9396V66.7657C86.3633 66.424 86.0087 64.7596 85.3025 64.1145C84.5045 63.3987 84.1055 61.9052 84.1055 61.4015V58.8475C84.1021 58.4869 84.2394 58.1373 84.4919 57.8636C84.6684 57.6984 84.8784 57.5673 85.1096 57.4778C85.3408 57.3883 85.5888 57.3423 85.8393 57.3423C86.0897 57.3423 86.3377 57.3883 86.5689 57.4778C86.8001 57.5673 87.0101 57.6984 87.1866 57.8636C87.4453 58.1347 87.5873 58.485 87.5856 58.8475V61.6784H86.3633V58.8475C86.3633 58.5912 86.1797 58.4616 85.8377 58.4616C85.7518 58.4509 85.6644 58.4619 85.5847 58.4935C85.505 58.5251 85.436 58.5762 85.3849 58.6413C85.3505 58.7001 85.332 58.7658 85.331 58.8328V61.4073C85.331 61.587 85.6065 62.8066 86.1543 63.3015C87.1043 64.1557 87.5856 66.094 87.5856 66.7598V68.9279Z" fill="#EB5D1C"/>
<path d="M0.304688 85.81C0.304688 78.3602 5.81458 74.1212 11.8406 74.1212C13.2247 74.1349 14.5923 74.4021 15.8653 74.9076C17.1383 75.413 18.2918 76.1468 19.26 77.067L15.954 80.8257C14.7792 79.8684 13.6013 79.185 11.9863 79.185C9.19334 79.185 6.7709 81.5769 6.7709 85.6097C6.7709 89.7779 8.82602 92.0903 11.9135 92.0903C13.7501 92.0903 15.2194 91.2066 16.2485 90.1756L19.5545 93.8666C18.5857 94.9193 17.378 95.7591 16.0184 96.3256C14.6589 96.892 13.1812 97.1709 11.6918 97.1423C5.59608 97.1423 0.304688 93.3953 0.304688 85.81Z" fill="#EB5D1C"/>
<path d="M17.9741 85.536C17.9741 78.2217 22.4549 74.1212 29.0572 74.1212C35.6596 74.1212 40.1403 78.2453 40.1403 85.536C40.1403 92.8267 35.6786 97.1423 29.0667 97.1423C22.4549 97.1423 17.9741 92.8474 17.9741 85.536ZM33.6963 85.536C33.6963 81.5033 31.9325 79.1791 29.0667 79.1791C26.201 79.1791 24.4403 81.5033 24.4403 85.536C24.4403 89.5687 26.201 92.0962 29.0667 92.0962C31.9325 92.0962 33.6963 89.5687 33.6963 85.536Z" fill="#EB5D1C"/>
<path d="M45.4858 79.4678H39.1685V74.5483H58.1237V79.4678H51.7905V96.7564H45.4573L45.4858 79.4678Z" fill="#EB5D1C"/>
<path d="M63.8171 79.4678H57.4839V74.5483H76.4392V79.4678H70.106V96.7564H63.7728L63.8171 79.4678Z" fill="#EB5D1C"/>
<path d="M80.3816 74.5336H88.0226L95.3058 96.7416H88.6116L85.8915 85.9484C85.3057 83.8304 84.7167 81.1291 84.1277 78.908H83.9915C83.4785 81.1645 82.8895 83.8304 82.3005 85.9484L79.5836 96.7445H73.1079L80.3816 74.5336ZM78.3265 87.4949H90.0081V92.0402H78.3265V87.4949Z" fill="#EB5D1C"/>
<path d="M93.7891 85.81C93.7891 78.3602 99.299 74.1212 105.692 74.1212C107.136 74.1013 108.57 74.3519 109.907 74.8579C111.245 75.364 112.46 76.1153 113.479 77.067L110.173 80.8257C108.998 79.8684 107.82 79.185 105.911 79.185C102.678 79.185 100.255 81.5769 100.255 85.6097C100.255 89.7779 102.238 92.0903 106.5 92.0903C107.14 92.1097 107.775 91.9683 108.336 91.6808V88.5996H104.809V83.8275H113.919V94.4322C112.228 95.9345 109.217 97.1658 105.838 97.1658C99.1533 97.1423 93.7891 93.3953 93.7891 85.81Z" fill="#EB5D1C"/>
<path d="M116.161 74.5336H131.589V79.4677H122.478V82.9525H130.265V87.8749H122.478V91.8369H131.956V96.7563H116.161V74.5336Z" fill="#EB5D1C"/>
</svg>
