<svg width="261" height="234" viewBox="0 0 261 234" fill="none" xmlns="http://www.w3.org/2000/svg">
<path d="M261 0H0V234H261V0Z" fill="black"/>
<path d="M74.6825 80.5942V214.602H113.126H248.959V79.5179L161.821 7.40149L74.6825 80.5942Z" stroke="white" stroke-width="4" stroke-miterlimit="10"/>
<path d="M203.373 90.7548L114.312 14.8712V90.7548" stroke="white" stroke-width="4" stroke-miterlimit="10"/>
<path d="M113.126 168.253V214.601" stroke="white" stroke-width="4" stroke-miterlimit="10"/>
<path d="M143.881 177.402V214.602" stroke="white" stroke-width="4" stroke-miterlimit="10"/>
<path d="M180.402 177.402V214.602" stroke="white" stroke-width="4" stroke-miterlimit="10"/>
<path d="M225.893 89.1204H35.3848V168.253H225.893V89.1204Z" fill="#010202"/>
<path d="M5.53185 146.696C5.53185 133.785 16.1097 126.439 27.6724 126.439C33.7355 126.439 38.6715 128.806 41.9166 131.532L35.5687 138.045C33.3143 136.386 31.054 135.205 27.9512 135.205C22.5941 135.205 17.937 139.351 17.937 146.337C17.937 153.563 21.8822 157.589 27.8088 157.589C31.3328 157.589 34.1567 156.049 36.1264 154.27L42.4743 160.669C38.5944 164.461 33.3084 166.354 27.3876 166.354C15.6826 166.359 5.53185 159.846 5.53185 146.696Z" fill="#EB5D1C"/>
<path d="M39.4486 146.222C39.4486 133.55 48.0509 126.439 60.7408 126.439C73.4307 126.439 82.033 133.605 82.033 146.222C82.033 158.895 73.4307 166.359 60.7408 166.359C48.0509 166.359 39.4486 158.9 39.4486 146.222ZM69.6279 146.222C69.6279 139.236 66.2463 135.205 60.7467 135.205C55.2472 135.205 51.8597 139.231 51.8597 146.222C51.8597 153.209 55.2472 157.594 60.7467 157.594C66.2463 157.594 69.6279 153.214 69.6279 146.222Z" fill="#EB5D1C"/>
<path d="M92.866 135.683H80.7397V127.157H117.124V135.683H104.998V165.652H92.8719V135.683H92.866Z" fill="#EB5D1C"/>
<path d="M121.942 135.683H109.815V127.157H146.2V135.683H134.074V165.652H121.948V135.683H121.942Z" fill="#EB5D1C"/>
<path d="M154.352 127.152H169.017L182.977 165.647H170.144L164.924 146.93C163.796 143.257 162.669 138.578 161.536 134.731H161.257C160.272 138.638 159.139 143.257 158.012 146.93L152.791 165.647H140.38L154.352 127.152ZM150.406 149.601H172.826V157.479H150.406V149.601Z" fill="#EB5D1C"/>
<path d="M178.877 146.696C178.877 133.785 189.455 126.439 201.724 126.439C208.493 126.439 213.429 128.806 216.674 131.532L210.326 138.045C208.072 136.386 205.811 135.205 202.145 135.205C195.939 135.205 191.288 139.351 191.288 146.337C191.288 153.563 195.097 157.589 203.272 157.589C204.542 157.589 205.954 157.355 206.796 156.876V151.545H200.027V143.253H217.516V161.611C214.271 164.217 208.493 166.349 202.002 166.349C189.17 166.359 178.877 159.846 178.877 146.696Z" fill="#EB5D1C"/>
<path d="M219.99 127.152H245.957V135.678H232.116V141.718H245.85V150.244H232.116V157.116H246.052V165.642H219.99V127.152Z" fill="#EB5D1C"/>
<path d="M112 200H76V234H112V200Z" fill="#010202"/>
<path d="M104.832 98.2994C105.431 98.2994 105.947 98.3841 106.38 98.5486C106.808 98.713 107.152 98.9223 107.413 99.1764C107.668 99.4306 107.858 99.7047 107.982 99.9987C108.101 100.293 108.16 100.572 108.16 100.831V110.942C108.16 111.041 108.119 111.271 108.03 111.624C107.941 111.978 107.709 112.337 107.336 112.696C107.146 112.855 106.843 113.02 106.434 113.184C106.025 113.349 105.491 113.433 104.838 113.433H103.883V120.47H101.587V98.2944H103.883H104.832V98.2994ZM105.603 111.335C105.686 111.266 105.752 111.191 105.781 111.121C105.799 111.076 105.817 111.041 105.835 111.011V110.947V100.896C105.817 100.721 105.763 100.592 105.68 100.507C105.591 100.422 105.502 100.357 105.396 100.313C105.289 100.268 105.188 100.243 105.075 100.238C104.963 100.233 104.88 100.228 104.832 100.228H103.877V111.51H104.832C104.969 111.51 105.111 111.5 105.259 111.475C105.402 111.455 105.52 111.405 105.603 111.335Z" fill="#EB5D1C"/>
<path d="M121.016 98.2994V118.546H125.525V120.475H118.72V98.2994H121.016Z" fill="#EB5D1C"/>
<path d="M142.095 117.898C142.113 118.606 141.84 119.204 141.27 119.697C140.671 120.215 139.858 120.475 138.85 120.475C137.782 120.475 136.951 120.181 136.346 119.588C135.848 119.109 135.587 118.561 135.575 117.943V98.2994H137.871V117.878C137.906 118.327 138.233 118.551 138.85 118.551C139.212 118.551 139.467 118.486 139.621 118.357C139.757 118.242 139.829 118.103 139.829 117.943L139.805 98.2994H142.101V117.898H142.095Z" fill="#EB5D1C"/>
<path d="M159.21 117.918C159.21 118.611 158.926 119.204 158.362 119.692C157.763 120.21 156.95 120.469 155.942 120.469C154.892 120.469 154.067 120.175 153.468 119.582C152.969 119.104 152.708 118.556 152.696 117.938V113.129H154.992V117.873C155.028 118.322 155.342 118.546 155.948 118.546C156.327 118.546 156.582 118.486 156.719 118.372C156.855 118.257 156.926 118.112 156.926 117.938V117.918V114.26C156.926 113.682 156.262 110.867 154.939 109.8C153.444 108.59 152.696 106.063 152.696 105.211V100.861C152.696 100.238 152.94 99.6847 153.42 99.1913C154.019 98.5983 154.862 98.3043 155.948 98.3043C157.033 98.3043 157.87 98.5983 158.475 99.1913C158.973 99.6847 159.222 100.238 159.222 100.861V105.65H156.926V100.886C156.909 100.452 156.582 100.238 155.948 100.238C155.52 100.238 155.236 100.337 155.099 100.542C155.028 100.656 154.998 100.766 154.998 100.866V105.216C154.998 105.52 155.514 107.583 156.547 108.42C158.332 109.865 159.228 113.144 159.228 114.27V117.918H159.21Z" fill="#EB5D1C"/>
</svg>
