<svg width="22" height="22" viewBox="0 0 22 22" fill="none" xmlns="http://www.w3.org/2000/svg">
<path fill-rule="evenodd" clip-rule="evenodd" d="M2.75999 5.46084C2.75999 5.46084 2.72115 4.44234 3.36758 3.12444C3.82358 2.19239 5.59873 1.67751 5.59873 1.67751C5.59873 1.67751 6.3579 1.48459 7.88376 2.95783C8.49027 3.51925 8.87598 4.27908 8.97117 5.10005C9.02629 5.8492 7.42901 7.44646 7.42901 7.44646C7.55263 8.36355 7.93554 9.22628 8.5327 9.9332C9.16033 10.6636 10.2415 11.8023 10.809 12.3347C11.295 12.7907 11.8375 13.3858 12.559 13.8644C13.9784 14.8052 14.3192 14.72 14.3192 14.72C14.3192 14.72 16.3411 13.0263 16.9462 13.0851C17.406 13.1315 18.0574 13.4346 18.8905 14.145C19.5094 14.6711 19.9053 15.0695 20.2159 15.6007C20.3265 15.7841 20.4136 15.9806 20.4752 16.1857C20.4752 16.1857 20.5567 17.0263 19.2513 18.3643C17.9522 19.6935 16.1607 19.3452 16.1607 19.3452C16.1607 19.3452 15.131 19.1924 13.446 18.3994C11.5804 17.4896 9.88067 16.2735 8.41743 14.8014C7.05192 13.3908 5.26174 11.2323 4.39107 9.73024C3.29491 7.84233 2.75999 5.46084 2.75999 5.46084Z" fill="#E7E7E7"/>
</svg>
